<svg id="Layer_1" enable-background="new 0 0 511 511" height="512" viewBox="0 0 511 511" width="512" xmlns="http://www.w3.org/2000/svg"><path d="m455 63v-47h-208v-16h-111v16h-80v47h80v17h-80v47h80v145h-80v7.5c0 87.814 57.032 162.554 136 189.136v18.864c0 12.958 10.542 23.5 23.5 23.5h80c12.958 0 23.5-10.542 23.5-23.5v-18.864c78.968-26.582 136-101.322 136-189.136v-7.5h-40.396c-3.761-35.913-34.213-64-71.104-64s-67.343 28.087-71.104 64h-57.396v-257h17v240.5h15v-160.5h49v17h-32.5v15h191.5v-47h-208v-17zm-80-32h65v17h-65zm-64 0h49v17h-49zm-64 0h49v17h-49zm-96-16h17v240.5h15v-240.5h17v257h-49zm-47 33h-33v-17h33zm15 0v-17h17v17zm-15 64h-33v-17h33zm15 0v-17h17v17zm185 375.5c0 4.687-3.814 8.5-8.5 8.5h-80c-4.686 0-8.5-3.813-8.5-8.5v-14.474c15.533 3.894 31.777 5.974 48.5 5.974s32.967-2.08 48.5-5.974zm-48.5-23.5c-88.176 0-162.098-62.186-180.236-145h360.472c-18.138 82.814-92.06 145-180.236 145zm88-241c28.61 0 52.305 21.381 55.987 49h-17.21c-3.515-18.205-19.561-32-38.777-32s-35.262 13.795-38.777 32h-17.21c3.682-27.619 27.377-49 55.987-49zm23.321 49h-46.643c3.176-9.851 12.427-17 23.321-17s20.147 7.149 23.322 17zm73.029 15c-.231 5.738-.735 11.407-1.481 17h-365.737c-.746-5.593-1.25-11.262-1.481-17zm-64.85-192h65v17h-65zm-64 0h49v17h-49z"/><path d="m247.5 368h16v15h-16z"/><path d="m215.5 368h16v15h-16z"/><path d="m279.5 368h16v15h-16z"/></svg>