<?xml version="1.0" standalone="no"?>
<!DOCTYPE svg PUBLIC "-//W3C//DTD SVG 20010904//EN"
 "http://www.w3.org/TR/2001/REC-SVG-20010904/DTD/svg10.dtd">
<svg version="1.0" xmlns="http://www.w3.org/2000/svg"
 width="400.000000pt" height="400.000000pt" viewBox="0 0 400.000000 400.000000"
 preserveAspectRatio="xMidYMid meet">
<metadata>
Created by potrace 1.15, written by Peter Selinger 2001-2017
</metadata>
<g transform="translate(0.000000,400.000000) scale(0.100000,-0.100000)"
fill="#000000" stroke="none">
<path d="M280 2000 l0 -1720 1720 0 1720 0 0 1720 0 1720 -1720 0 -1720 0 0
-1720z m3240 0 l0 -1520 -1520 0 -1520 0 0 1520 0 1520 1520 0 1520 0 0 -1520z"/>
<path d="M1870 3350 c-49 -9 -118 -38 -163 -68 -24 -16 -36 -18 -85 -9 -88 14
-252 2 -308 -22 -26 -12 -50 -21 -55 -21 -20 0 -135 -88 -175 -134 -24 -28
-60 -84 -81 -125 -37 -75 -38 -78 -41 -212 -4 -133 -3 -137 27 -208 16 -39 43
-90 59 -114 32 -46 111 -127 124 -127 4 0 17 -8 28 -17 19 -17 20 -30 21 -263
0 -135 4 -253 7 -263 7 -18 26 -29 114 -73 158 -79 427 -134 653 -134 111 0
346 24 423 43 31 8 75 19 97 25 92 23 193 67 216 95 17 20 18 45 19 267 l0
245 48 27 c40 22 118 97 169 161 37 46 82 224 83 321 0 60 -19 156 -42 206
-38 83 -41 90 -50 90 -4 0 -8 6 -8 13 -1 15 -74 95 -121 130 -125 94 -265 121
-473 91 -30 -4 -50 -3 -55 4 -3 5 -37 24 -76 42 -64 30 -80 32 -190 36 -66 1
-140 -1 -165 -6z m189 -181 c67 -10 129 -37 166 -70 42 -38 77 -42 153 -20
152 46 281 14 382 -92 65 -69 100 -160 100 -254 -1 -62 -24 -160 -44 -182 -9
-10 -16 -22 -16 -27 0 -27 -144 -134 -181 -134 -7 0 -21 -7 -31 -17 -17 -15
-18 -37 -18 -273 l0 -256 -47 -16 c-47 -15 -139 -36 -258 -59 -33 -6 -127 -13
-210 -16 -207 -7 -390 22 -575 89 l-65 24 -5 249 c-5 241 -6 251 -28 283 -13
17 -29 32 -36 32 -14 0 -109 68 -114 82 -2 5 -10 14 -17 21 -7 8 -25 38 -40
68 -24 47 -28 66 -28 144 0 80 3 96 29 145 56 107 154 179 275 201 54 9 74 8
129 -6 127 -33 131 -32 212 21 51 34 90 52 132 60 34 7 63 12 65 13 2 1 34 -4
70 -10z"/>
<path d="M1590 1549 c-60 -24 -82 -79 -61 -150 14 -46 51 -69 110 -69 56 0
111 53 111 108 0 54 -31 99 -77 111 -45 13 -50 13 -83 0z"/>
<path d="M2314 1545 c-41 -21 -59 -57 -57 -113 5 -132 201 -140 227 -9 18 88
-88 164 -170 122z"/>
<path d="M1931 1473 c-37 -5 -97 -40 -131 -75 -49 -51 -70 -96 -76 -168 l-7
-70 -42 0 c-67 0 -184 -45 -300 -115 -51 -31 -98 -31 -155 0 -76 41 -94 47
-127 40 -95 -18 -93 -145 3 -198 107 -59 285 -141 354 -163 77 -25 100 -28
235 -28 149 -1 150 -1 215 31 36 18 73 38 83 45 14 10 20 10 35 0 9 -7 46 -27
82 -45 64 -32 67 -32 210 -32 137 0 228 13 255 36 5 5 17 9 27 9 19 0 94 31
165 69 10 5 25 12 33 15 8 3 33 17 55 31 22 14 47 28 55 31 8 4 30 21 48 37
26 25 32 39 32 72 0 33 -6 46 -31 68 -41 36 -67 34 -146 -8 -80 -42 -121 -44
-183 -9 -25 15 -60 35 -78 45 -54 31 -173 69 -216 69 l-41 0 -1 43 c-2 101
-61 197 -149 244 -44 23 -139 35 -204 26z m141 -215 c29 -37 32 -66 12 -103
-28 -53 -79 -68 -133 -40 -57 29 -56 141 2 165 36 16 99 4 119 -22z m-225
-303 c8 -8 20 -15 26 -15 30 0 -74 -49 -123 -58 -56 -11 -205 2 -224 19 -12
11 97 60 154 70 61 10 149 2 167 -16z m570 -17 c36 -16 62 -33 57 -38 -5 -4
-45 -13 -89 -18 -90 -12 -178 1 -233 33 -30 18 -31 19 -11 33 58 40 175 36
276 -10z"/>
</g>
</svg>
